<svg xmlns="http://www.w3.org/2000/svg" viewBox="0 0 16 16"><defs><style>.a{fill:#4f467f;}</style></defs><path class="a" d="M3.759,9.39a.175.175,0,0,1,.168.2,44,44,0,0,0-.541,4.936c.2.14.4.269.61.391A46.51,46.51,0,0,1,4.717,8.6c-.478-.479-.512-1.846-1.025-2.154S1.8,6.48,1.8,6.138s1.89-.752,1.89-.752A3.563,3.563,0,0,1,6.96,3.21C10.126,2.9,12.449,6.2,12.866,9.1a16.872,16.872,0,0,1,0,5.244,7.915,7.915,0,0,0,.709-.608,16.275,16.275,0,0,0,.059-3.328.173.173,0,0,1,.175-.188,14.02,14.02,0,0,1,1.834.163A8,8,0,1,0,.2,9.749,13.465,13.465,0,0,1,3.759,9.39Z"/><circle class="a" cx="6.243" cy="5.461" r="0.728"/></svg>