<svg id="圖層_1" data-name="圖層 1" xmlns="http://www.w3.org/2000/svg" viewBox="0 0 950 200"><defs><style>.cls-1{fill:#5e6ab1;}</style></defs><path class="cls-1" d="M235.41,124.46V75.88h7.3a32.09,32.09,0,0,1,7.77.76,11.64,11.64,0,0,1,4.94,2.55,13.36,13.36,0,0,1,3.24,4.62,14,14,0,0,1,1.22,5.67,11.48,11.48,0,0,1-4,8.84,11.73,11.73,0,0,1,6.1,4.62,13.67,13.67,0,0,1-1.76,17.24,13.23,13.23,0,0,1-5.44,3.37,31.65,31.65,0,0,1-8.28.91Zm7.33-27.72H245q4.09,0,6-1.81a7,7,0,0,0,1.9-5.33,6.71,6.71,0,0,0-2-5.21,8.15,8.15,0,0,0-5.66-1.77h-2.58Zm0,20.83h4.53q5,0,7.3-1.95a6.75,6.75,0,0,0,2.45-5.35,6.85,6.85,0,0,0-2.36-5.28q-2.29-2.11-8.21-2.11h-3.71Z"/><path class="cls-1" d="M299.63,103.76l15,20.7h-9l-13.88-19.88H290.5v19.88h-7.33V75.88h8.59q9.63,0,13.91,3.62a13.32,13.32,0,0,1,4.72,10.64,13.82,13.82,0,0,1-3,8.87A13.18,13.18,0,0,1,299.63,103.76Zm-9.13-5.57h2.33q10.41,0,10.41-8,0-7.45-10.13-7.46H290.5Z"/><path class="cls-1" d="M338.24,75.88v29.26q0,6.27,2,9.16a10.95,10.95,0,0,0,17.21,0c1.36-1.87,2.05-4.92,2.05-9.16V75.88h7.33v31.28a18,18,0,1,1-36,0V75.88Z"/><path class="cls-1" d="M424.07,78.5v8.68q-6.36-5.31-13.15-5.32a16.78,16.78,0,0,0-12.62,5.38,18.15,18.15,0,0,0-5.16,13.09,17.69,17.69,0,0,0,5.16,12.9A17.06,17.06,0,0,0,411,118.48a15.7,15.7,0,0,0,6.58-1.25,19.52,19.52,0,0,0,3.13-1.7,38.79,38.79,0,0,0,3.41-2.58v8.84a26.46,26.46,0,0,1-13.21,3.55,24.36,24.36,0,0,1-17.78-7.27,24.07,24.07,0,0,1-7.33-17.68,25,25,0,0,1,6.14-16.55,24.42,24.42,0,0,1,19.53-8.9A24.8,24.8,0,0,1,424.07,78.5Z"/><path class="cls-1" d="M469.79,82.77H450.32V94.45h18.9v6.89h-18.9v16.23h19.47v6.89H443V75.88h26.8Z"/><path class="cls-1" d="M528.45,103.48l-15.86-27.6H521L532.13,95.3l11.14-19.42h8.43l-15.92,27.6v21h-7.33Z"/><path class="cls-1" d="M574.29,75.88v29.26c0,4.18.69,7.23,2.05,9.16a10.95,10.95,0,0,0,17.21,0q2-2.8,2-9.16V75.88h7.33v31.28a18,18,0,1,1-36,0V75.88Z"/><path class="cls-1" d="M653.78,124.46V75.88H664a37.23,37.23,0,0,1,11.58,1.45,21.77,21.77,0,0,1,8.28,4.82q7.51,6.85,7.52,18t-7.84,18.13a23,23,0,0,1-8.24,4.81,37.6,37.6,0,0,1-11.42,1.35Zm7.33-6.89h3.3a27.37,27.37,0,0,0,8.22-1A16.67,16.67,0,0,0,684,100.17a16.86,16.86,0,0,0-5.35-13q-4.82-4.44-14.19-4.44h-3.3Z"/><path class="cls-1" d="M737,82.77H717.56V94.45h18.91v6.89H717.56v16.23H737v6.89h-26.8V75.88H737Z"/><path class="cls-1" d="M783.79,83.12l-5.94,3.52a10.26,10.26,0,0,0-3.18-3.77,7.42,7.42,0,0,0-4.06-1,7.55,7.55,0,0,0-5.07,1.73,5.38,5.38,0,0,0-2,4.28q0,3.55,5.29,5.73l4.84,2q5.93,2.39,8.65,5.84a13.1,13.1,0,0,1,2.74,8.44,14.85,14.85,0,0,1-4.47,11.08,15.35,15.35,0,0,1-11.17,4.4A14.92,14.92,0,0,1,759,121.6c-2.71-2.5-4.39-6-5.07-10.54l7.43-1.64c.33,2.85.92,4.83,1.76,5.92a8.38,8.38,0,0,0,12.3.85,8.61,8.61,0,0,0,1.87-8.42A6.59,6.59,0,0,0,776,105.6a10.08,10.08,0,0,0-2.16-1.86,22.16,22.16,0,0,0-3.14-1.65l-4.69-2q-10-4.22-10-12.33a11.72,11.72,0,0,1,4.19-9.16,15.14,15.14,0,0,1,10.41-3.71Q779.07,74.94,783.79,83.12Z"/><path class="cls-1" d="M810.89,75.88v48.58h-7.33V75.88Z"/><path class="cls-1" d="M857.21,99.17h20.07v1.6a33.15,33.15,0,0,1-1.29,9.69,20.71,20.71,0,0,1-4.25,7.3,22,22,0,0,1-17.21,7.61A23.66,23.66,0,0,1,837.07,118a25.36,25.36,0,0,1,.13-35.68,25.55,25.55,0,0,1,28.63-5.06,30.72,30.72,0,0,1,9.28,7.55l-5.23,5q-6-7.95-14.56-8a17.42,17.42,0,0,0-12.93,5.32,17.76,17.76,0,0,0-5.23,13.09,18.27,18.27,0,0,0,17.62,18.25,14.65,14.65,0,0,0,9.72-3.65,13,13,0,0,0,4.82-8.81H857.21Z"/><path class="cls-1" d="M896.16,124.46V72.58l35.43,37.06V75.88h7.33v51.54l-35.43-37v34Z"/><path class="cls-1" d="M84,110.88q-5.48-4.75-19.54-4.75H55.67v33.09H66.45q11.82,0,17.36-4.39a14.87,14.87,0,0,0,5.84-12.05A15.08,15.08,0,0,0,84,110.88Z"/><path class="cls-1" d="M75.39,88.23q4.53-4.07,4.53-12,0-7.73-4.64-11.73t-13.47-4H55.67V92.31h5.46Q70.87,92.31,75.39,88.23Z"/><path class="cls-1" d="M171.08,10h-140a20,20,0,0,0-20,20V170a20,20,0,0,0,20,20h140a20,20,0,0,0,20-20V30A20,20,0,0,0,171.08,10ZM97.28,145.11a31.7,31.7,0,0,1-13,7.58,79.26,79.26,0,0,1-19.68,2.06H38.23V45.32H55.59q11.61,0,18.49,1.7c.5.12,1,.26,1.47.4L95.29,83.74A26.36,26.36,0,0,1,87,95.85a27.89,27.89,0,0,1,14.53,10.42,29.63,29.63,0,0,1-4.2,38.84Zm30.21-33v42.54H110.76V107.54l33.79-62.29,19.39.07Z"/></svg>