<svg id="圖層_1" data-name="圖層 1" xmlns="http://www.w3.org/2000/svg" viewBox="0 0 50 50"><defs><style>.cls-1{fill:#fff;}</style></defs><path class="cls-1" d="M24.90411,40c6.62989,0,11.96308-2.81177,11.96308-11.15161V6.17242A1.40184,1.40184,0,0,0,35.31665,5H32.90289a1.40183,1.40183,0,0,0-1.55053,1.17242v21.126c0,5.48041-2.85071,7.26209-6.44825,7.26209-3.34521,0-6.00927-1.78168-6.00927-7.26209V6.17242A1.4018,1.4018,0,0,0,17.3443,5H14.68335a1.40184,1.40184,0,0,0-1.55054,1.17242v22.676C13.13281,37.18823,18.27423,40,24.90411,40Z"/><path class="cls-1" d="M10.86133,41.13739H39.13867A.86133.86133,0,0,1,40,41.99872v2.13989A.86139.86139,0,0,1,39.13861,45H10.86133A.86133.86133,0,0,1,10,44.13867v-2.14A.86133.86133,0,0,1,10.86133,41.13739Z"/></svg>