<svg id="圖層_1" data-name="圖層 1" xmlns="http://www.w3.org/2000/svg" viewBox="0 0 50 50"><defs><style>.cls-1{fill:#fff;}</style></defs><path class="cls-1" d="M44.85374,10.62a3.93924,3.93924,0,0,0-1.13995-2.96l-1.38-1.38a3.93925,3.93925,0,0,0-2.96-1.14,5.04258,5.04258,0,0,0-3.57,1.73l-3.27,3.69-1.64-1.64a3.53682,3.53682,0,0,0-5,0l-1.32,1.33a3.52474,3.52474,0,0,0,0,4.99l1.69,1.69-13.27,13.27-3.7,3.7a4.87751,4.87751,0,0,0-1.43,3.37l-1.61,1.51a3.47252,3.47252,0,0,0-1.11,2.49,3.55193,3.55193,0,0,0,3.6,3.6,3.47273,3.47273,0,0,0,2.49-1.11l1.53-1.63a4.87111,4.87111,0,0,0,3.33-1.43l10.5-10.5,6.47-6.46,1.69,1.68a3.52472,3.52472,0,0,0,4.99,0l1.33-1.32a3.53681,3.53681,0,0,0,0-5l-1.64-1.64,3.69-3.27A5.04254,5.04254,0,0,0,44.85374,10.62ZM23.5881,29.08565h-5.36L28.32377,19l2.67,2.67Z"/></svg>