<svg id="圖層_1" data-name="圖層 1" xmlns="http://www.w3.org/2000/svg" viewBox="0 0 50 50"><defs><style>.cls-1{fill:#fff;}</style></defs><path class="cls-1" d="M12.5,6.23415A1.23415,1.23415,0,0,1,13.73415,5h8.84c7.82609,0,13.53014,2.42192,13.53014,9.90685a8.718,8.718,0,0,1-6.4921,8.6663v.2148C34.58745,24.81151,37.5,27.71781,37.5,33.263,37.5,41.28493,31.55385,45,23.36215,45h-9.628A1.23415,1.23415,0,0,1,12.5,43.76585ZM22.51235,21.366c3.2164,0,4.7332-1.66795,4.7332-5.33041,0-3.71288-1.57855-4.95124-4.55039-4.95124H21.47974V21.366Zm.30386,17.44219c3.94268,0,5.94614-1.99014,5.94614-6.08219,0-3.92987-1.9417-5.7074-5.76581-5.7074h-1.5168V38.80822Z"/></svg>