<svg id="圖層_1" data-name="圖層 1" xmlns="http://www.w3.org/2000/svg" xmlns:xlink="http://www.w3.org/1999/xlink" viewBox="0 0 50 50"><defs><style>.cls-1{fill:url(#未命名漸層_20);}.cls-2{fill:#fff;}</style><linearGradient id="未命名漸層_20" x1="6.5" y1="25" x2="43.5" y2="25" gradientUnits="userSpaceOnUse"><stop offset="0" stop-color="#fff" stop-opacity="0.7"/><stop offset="1" stop-color="#fff" stop-opacity="0.7"/></linearGradient></defs><rect class="cls-1" x="6.5" y="6.5" width="37" height="37" rx="3.5"/><path class="cls-2" d="M40,8a2.00227,2.00227,0,0,1,2,2V40a2.00227,2.00227,0,0,1-2,2H10a2.00227,2.00227,0,0,1-2-2V10a2.00227,2.00227,0,0,1,2-2H40m0-3H10a5,5,0,0,0-5,5V40a5,5,0,0,0,5,5H40a5,5,0,0,0,5-5V10a5,5,0,0,0-5-5Z"/></svg>