<svg id="圖層_1" data-name="圖層 1" xmlns="http://www.w3.org/2000/svg" viewBox="0 0 50 50"><defs><style>.cls-1{fill:#ffffff;}</style></defs><rect class="cls-1" x="5" y="5" width="40" height="5" rx="1.41309"/><path class="cls-1" d="M21.11719,16.66663H43.88287A1.11713,1.11713,0,0,1,45,17.78375V20.5495a1.11713,1.11713,0,0,1-1.11713,1.11713H21.11713A1.11713,1.11713,0,0,1,20,20.5495V17.78381A1.11719,1.11719,0,0,1,21.11719,16.66663Z"/><rect class="cls-1" x="5" y="28.33331" width="40" height="5" rx="1.41309"/><path class="cls-1" d="M21.11713,40H43.88287A1.11713,1.11713,0,0,1,45,41.11713v2.76569A1.11719,1.11719,0,0,1,43.88281,45H21.11713A1.11713,1.11713,0,0,1,20,43.88287V41.11713A1.11713,1.11713,0,0,1,21.11713,40Z"/></svg>