<svg id="圖層_1" data-name="圖層 1" xmlns="http://www.w3.org/2000/svg" viewBox="0 0 50 50"><defs><style>.cls-1{fill:#ffffff;}</style></defs><rect class="cls-1" x="5" y="22.5" width="40" height="5" rx="1.41309"/><path class="cls-1" d="M26.00317,30.50159a1.25391,1.25391,0,0,0-2.00634,0l-4.992,6.656A1.254,1.254,0,0,0,20.008,39.164H22.5v5.12946A.70657.70657,0,0,0,23.20654,45h3.58692A.70657.70657,0,0,0,27.5,44.29346V39.164h2.492a1.254,1.254,0,0,0,1.00318-2.00641Z"/><path class="cls-1" d="M23.99683,19.49841a1.254,1.254,0,0,0,2.00634,0l4.992-6.656A1.254,1.254,0,0,0,29.992,10.836H27.5V5.70654A.70657.70657,0,0,0,26.79346,5H23.20654A.70657.70657,0,0,0,22.5,5.70654V10.836H20.008a1.254,1.254,0,0,0-1.00318,2.00641Z"/></svg>