<svg id="圖層_1" data-name="圖層 1" xmlns="http://www.w3.org/2000/svg" viewBox="0 0 50 50"><defs><style>.cls-1{fill:#fff;}</style></defs><path class="cls-1" d="M12.99315,40.81011H18.3737A.9751.9751,0,0,0,19.36,39.8466l5.9863-29.52924a.97511.97511,0,0,0-.9863-.96351H18.97944a.9751.9751,0,0,1-.98629-.96352V5.96351A.9751.9751,0,0,1,18.97944,5H37.00685a.97511.97511,0,0,1,.9863.96351V8.39033a.97511.97511,0,0,1-.9863.96352H31.5696a.97511.97511,0,0,0-.9863.96351L24.597,39.8466a.9751.9751,0,0,0,.98629.96351h5.43726a.9751.9751,0,0,1,.98629.96352v2.26286A.9751.9751,0,0,1,31.02056,45H12.99315a.97511.97511,0,0,1-.9863-.96351V41.77363A.97511.97511,0,0,1,12.99315,40.81011Z"/></svg>