<svg id="圖層_1" data-name="圖層 1" xmlns="http://www.w3.org/2000/svg" viewBox="0 0 50 50"><defs><style>.cls-1{fill:#ffffff;}</style></defs><rect class="cls-1" x="5" y="5" width="40" height="5" rx="1.41309"/><path class="cls-1" d="M13.61713,16.66663H36.38281A1.11719,1.11719,0,0,1,37.5,17.78381V20.5495a1.11713,1.11713,0,0,1-1.11713,1.11713H13.61713A1.11713,1.11713,0,0,1,12.5,20.5495V17.78375A1.11713,1.11713,0,0,1,13.61713,16.66663Z"/><rect class="cls-1" x="5" y="28.33331" width="40" height="5" rx="1.41309"/><path class="cls-1" d="M13.61713,40H36.38287A1.11713,1.11713,0,0,1,37.5,41.11713v2.76569A1.11719,1.11719,0,0,1,36.38281,45H13.61713A1.11713,1.11713,0,0,1,12.5,43.88287V41.11713A1.11713,1.11713,0,0,1,13.61713,40Z"/></svg>