<svg id="圖層_1" data-name="圖層 1" xmlns="http://www.w3.org/2000/svg" viewBox="0 0 50 50"><defs><style>.cls-1{fill:#ffffff;}</style></defs><rect class="cls-1" x="5" y="5" width="40" height="5" rx="1.41309"/><path class="cls-1" d="M6.11713,16.66663H28.88287A1.11713,1.11713,0,0,1,30,17.78375v2.76569a1.11719,1.11719,0,0,1-1.11719,1.11719H6.11713A1.11713,1.11713,0,0,1,5,20.5495V17.78375a1.11713,1.11713,0,0,1,1.11713-1.11713Z"/><rect class="cls-1" x="5" y="28.33331" width="40" height="5" rx="1.41309"/><path class="cls-1" d="M6.11713,40H28.88287A1.11713,1.11713,0,0,1,30,41.11713v2.76569A1.11719,1.11719,0,0,1,28.88281,45H6.11713A1.11713,1.11713,0,0,1,5,43.88287V41.11713A1.11713,1.11713,0,0,1,6.11713,40Z"/></svg>